<svg id="Group_236" data-name="Group 236" xmlns="http://www.w3.org/2000/svg" xmlns:xlink="http://www.w3.org/1999/xlink" width="194.52" height="102.264" viewBox="0 0 194.52 102.264">
  <defs>
    <clipPath id="clip-path">
      <rect id="Rectangle_148" data-name="Rectangle 148" width="194.52" height="102.264" fill="none"/>
    </clipPath>
  </defs>
  <g id="Group_105" data-name="Group 105">
    <g id="Group_104" data-name="Group 104" clip-path="url(#clip-path)">
      <path id="Path_296" data-name="Path 296" d="M25.889,165.889c-.158-.061-3.028-1.372-8.456-4.529-4.842-2.816-7.514-4.653-12.126-6.091C4.446,155,.525,153.813.2,154.488c-.194.4,1.067,1.118,2.074,2.187,2.228,2.365,2,5.177,2.393,12.183.468,8.313.955,7.268.638,9.215A51.769,51.769,0,0,1,1.637,189C.4,191.859-.392,193.205.2,193.847c.977,1.057,4.758-.827,6.861-1.874,4.008-2,4.424-3.025,9.574-6.247a40.175,40.175,0,0,1,8.776-4.373c2.468-.837,3.8-.012,4.787-1.093.739-.81.544-1.612.437-6.187-.1-4.1.03-4.794-.638-5.779-.917-1.353-2.274-1.7-4.107-2.4" transform="translate(0 -121.871)" fill="#e34342"/>
    </g>
  </g>
  <g id="Group_107" data-name="Group 107">
    <g id="Group_106" data-name="Group 106" clip-path="url(#clip-path)">
      <path id="Path_297" data-name="Path 297" d="M565.983,294.236v-42.13a.663.663,0,0,1,.67-.656h9.281a.667.667,0,0,1,.658.531l1.381,6.955a.671.671,0,0,0,1.328-.125v-6.7a.663.663,0,0,1,.67-.656h9.051a.663.663,0,0,1,.67.656v42.13a.663.663,0,0,1-.67.656h-9.65a.668.668,0,0,1-.644-.474l-1.923-6.533a.672.672,0,0,0-1.314.182v6.17a.663.663,0,0,1-.67.656h-8.168a.663.663,0,0,1-.67-.656" transform="translate(-444.514 -198.625)" fill="#e34342"/>
      <path id="Path_298" data-name="Path 298" d="M176.882,294.776h0a.663.663,0,0,0,.67-.656V251.959a.663.663,0,0,0-.67-.656H160.109a.663.663,0,0,0-.67.656V294.12a.663.663,0,0,0,.67.656h7.549a.677.677,0,0,1,.474.192l5.735,5.613a.68.68,0,0,0,.947,0l2.717-2.659a.646.646,0,0,0,0-.928l-1.123-1.1a.654.654,0,0,1,.474-1.12m-7.695-9.042h-.929a.663.663,0,0,1-.67-.656v-21.4a.663.663,0,0,1,.67-.656h.929a.663.663,0,0,1,.67.656v21.4a.663.663,0,0,1-.67.656" transform="translate(-125.221 -198.509)" fill="#e34342"/>
      <path id="Path_299" data-name="Path 299" d="M273.376,251.96v42.161a.663.663,0,0,1-.67.656H255.933a.663.663,0,0,1-.67-.656V251.96a.663.663,0,0,1,.67-.656h6.583a.663.663,0,0,1,.67.656v21.4a.663.663,0,0,0,.67.656h.929a.663.663,0,0,0,.67-.656v-21.4a.663.663,0,0,1,.67-.656h6.581a.663.663,0,0,1,.67.656" transform="translate(-200.48 -198.51)" fill="#e34342"/>
      <path id="Path_300" data-name="Path 300" d="M371.725,287.928v-35.9a.663.663,0,0,0-.67-.656H351.73a.663.663,0,0,0-.67.656v42.161a.663.663,0,0,0,.67.656h19.325a.663.663,0,0,0,.67-.656v-2.918a.663.663,0,0,0-.67-.656H359.874a.663.663,0,0,1-.67-.656v-.717a.663.663,0,0,1,.67-.656h11.181a.663.663,0,0,0,.67-.656m-13.01-4.137v-21.4a.663.663,0,0,1,.67-.656h.929a.663.663,0,0,1,.67.656v21.4a.663.663,0,0,1-.67.656h-.929a.663.663,0,0,1-.67-.656" transform="translate(-275.717 -198.562)" fill="#e34342"/>
      <path id="Path_301" data-name="Path 301" d="M479.194,288.235v-35.9a.663.663,0,0,0-.67-.656H459.2a.663.663,0,0,0-.67.656v42.161a.663.663,0,0,0,.67.656h19.325a.663.663,0,0,0,.67-.656v-2.918a.663.663,0,0,0-.67-.656h-11.18a.663.663,0,0,1-.67-.656v-.717a.663.663,0,0,1,.67-.656h11.18a.663.663,0,0,0,.67-.656m-13.01-4.137V262.7a.663.663,0,0,1,.67-.656h.929a.663.663,0,0,1,.67.656v21.4a.663.663,0,0,1-.67.656h-.929a.663.663,0,0,1-.67-.656" transform="translate(-360.122 -198.804)" fill="#e34342"/>
      <path id="Path_302" data-name="Path 302" d="M557.327,26.674V68.835a.757.757,0,0,0,.828.656h23.87a.757.757,0,0,0,.828-.656V65.918a.757.757,0,0,0-.828-.656H568.213a.757.757,0,0,1-.828-.656v-.719a.757.757,0,0,1,.828-.656h13.811a.757.757,0,0,0,.828-.656v-35.9a.757.757,0,0,0-.828-.656h-23.87a.757.757,0,0,0-.828.656m11.66,32.815h-1.148a.757.757,0,0,1-.828-.656v-21.4a.757.757,0,0,1,.828-.656h1.148a.757.757,0,0,1,.828.656v21.4a.757.757,0,0,1-.828.656" transform="translate(-437.716 -20.552)" fill="#e34342"/>
      <path id="Path_303" data-name="Path 303" d="M185.065,27.825H160.181a.7.7,0,0,0-.742.656V70.642a.7.7,0,0,0,.742.656h13.314a.7.7,0,0,0,.741-.656V66.32a.7.7,0,0,1,.734-.656l10.13-.087a.7.7,0,0,0,.734-.656q-.015-18.22-.028-36.441a.7.7,0,0,0-.742-.655m-11.092,32.6h-1.028a.7.7,0,0,1-.742-.656V38.328a.7.7,0,0,1,.742-.656h1.028a.7.7,0,0,1,.742.656v21.44a.7.7,0,0,1-.742.656" transform="translate(-125.221 -21.979)" fill="#e34342"/>
      <path id="Path_304" data-name="Path 304" d="M292.242,28.481V70.642c0,.362.409.656.913.656h22.861c.5,0,.913-.294.913-.656V28.481c0-.362-.409-.656-.913-.656H293.155c-.5,0-.913.294-.913.656M305.22,61.3h-1.266c-.5,0-.913-.294-.913-.656v-21.4c0-.362.409-.656.913-.656h1.266c.5,0,.913.294.913.656v21.4c0,.362-.409.656-.913.656" transform="translate(-229.522 -21.979)" fill="#e34342"/>
      <path id="Path_305" data-name="Path 305" d="M419.149,26.672V68.833c0,.362.413.656.922.656H430.72c.509,0,.922-.294.922-.656v-.809c0-.763,1.522-.911,1.81-.176l.455,1.162a.931.931,0,0,0,.888.48h10.725c.633,0,1.078-.443.872-.869l-9.976-20.68a.477.477,0,0,1-.019-.38l7.656-20.722c.154-.416-.287-.822-.892-.822H432.676a1,1,0,0,0-.836.38l-.554.848c-.418.64-1.768.423-1.758-.283l0-.282c.005-.365-.409-.662-.922-.662h-8.539c-.509,0-.922.294-.922.656" transform="translate(-329.193 -20.551)" fill="#e34342"/>
      <path id="Path_306" data-name="Path 306" d="M624.122,8l3.218,2.771a.986.986,0,0,0,1.17.038l9.42-6.9a.565.565,0,0,0,.047-.926L634.76.212A.987.987,0,0,0,633.59.175l-9.42,6.9a.565.565,0,0,0-.047.926" transform="translate(-490.004 0)" fill="#e34342"/>
      <path id="Path_307" data-name="Path 307" d="M737.584,171.626a29.639,29.639,0,0,0-6.115-2.967c-1.938-.775-3.426-1.3-3.6-1.359-6.719-2.361-10.081-3.541-10.968-3.832-9.624-3.15-17.909-5.232-20.633-5.892a.767.767,0,0,0-.956.726c-.2,19.745-.381,32.99-.527,34.975-.035.474-.236,2.608.332,2.77a.319.319,0,0,0,.079.009c.2.009.549-.092,3.363-.7,7.155-1.542,8.158-1.6,12.5-2.658,1.965-.479,2.411-.619,9.261-2.348,3.766-.95,4.579-1.147,6.563-1.668,4.389-1.153,7.94-2.165,10.7-4.141,1.131-.81,1.68-1.459,1.437-2.039a2.28,2.28,0,0,0-1.888-.988c-.949-.062-1.464.38-2.608.865a17.706,17.706,0,0,1-5.3,1.112,17.446,17.446,0,0,1-4.316.062c-1.356-.169-3.125-.387-3.416-1.051-.549-1.247,4.479-3.272,4.944-3.461A39.828,39.828,0,0,1,733.987,177a34.108,34.108,0,0,0,3.7-.75c.417-.139,2.107-.706,2.411-1.661.317-1-1.042-1.947-2.517-2.965M720.7,176.151c-2.1,0-3.806-1.171-3.806-2.616s1.7-2.615,3.806-2.615,3.806,1.171,3.806,2.615-1.7,2.616-3.806,2.616" transform="translate(-545.627 -124.454)" fill="#e34342"/>
    </g>
  </g>
</svg>
