<svg id="Group_234" data-name="Group 234" xmlns="http://www.w3.org/2000/svg" xmlns:xlink="http://www.w3.org/1999/xlink" width="252.05" height="135.37" viewBox="0 0 252.05 135.37">
  <defs>
    <clipPath id="clip-path">
      <rect id="Rectangle_148" data-name="Rectangle 148" width="252.05" height="135.37" fill="none"/>
    </clipPath>
  </defs>
  <g id="Group_105" data-name="Group 105">
    <g id="Group_104" data-name="Group 104" clip-path="url(#clip-path)">
      <path id="Path_296" data-name="Path 296" d="M33.546,169.646c-.2-.08-3.924-1.817-10.958-6-6.274-3.728-9.736-6.16-15.713-8.063-1.114-.355-6.2-1.927-6.616-1.034-.251.534,1.383,1.48,2.688,2.894,2.887,3.13,2.59,6.852,3.1,16.127.607,11,1.237,9.621.827,12.2-.836,5.256-3.566,11.676-4.755,14.472-1.607,3.779-2.629,5.56-1.861,6.409,1.266,1.4,6.166-1.094,8.89-2.481,5.193-2.643,5.733-4,12.405-8.27a51.611,51.611,0,0,1,11.371-5.789c3.2-1.108,4.924-.015,6.2-1.447.958-1.073.705-2.134.566-8.189-.124-5.429.038-6.345-.827-7.65-1.188-1.791-2.946-2.253-5.322-3.182" transform="translate(0 -111.378)" fill="#e34342"/>
    </g>
  </g>
  <g id="Group_107" data-name="Group 107">
    <g id="Group_106" data-name="Group 106" clip-path="url(#clip-path)">
      <path id="Path_297" data-name="Path 297" d="M565.983,308.087V252.318a.868.868,0,0,1,.868-.868h12.026a.868.868,0,0,1,.852.7q.895,4.6,1.79,9.206a.868.868,0,0,0,1.72-.166v-8.875a.868.868,0,0,1,.868-.868h11.728a.868.868,0,0,1,.868.868v55.769a.868.868,0,0,1-.868.868h-12.5a.868.868,0,0,1-.834-.628l-2.492-8.648a.868.868,0,0,0-1.7.241v8.168a.868.868,0,0,1-.868.868H566.851a.868.868,0,0,1-.868-.868" transform="translate(-408.589 -181.524)" fill="#e34342"/>
      <path id="Path_298" data-name="Path 298" d="M182.041,308.849h0a.868.868,0,0,0,.868-.868v-55.81a.868.868,0,0,0-.868-.868H160.307a.868.868,0,0,0-.868.868v55.81a.868.868,0,0,0,.868.868h9.782a.867.867,0,0,1,.614.254l7.431,7.43a.868.868,0,0,0,1.228,0l3.521-3.52a.868.868,0,0,0,0-1.228l-1.455-1.455a.868.868,0,0,1,.614-1.482M172.07,296.88h-1.2a.868.868,0,0,1-.868-.868V267.688a.868.868,0,0,1,.868-.868h1.2a.868.868,0,0,1,.868.868v28.324a.868.868,0,0,1-.868.868" transform="translate(-115.101 -181.418)" fill="#e34342"/>
      <path id="Path_299" data-name="Path 299" d="M278.733,252.172v55.81a.868.868,0,0,1-.868.868H256.131a.868.868,0,0,1-.868-.868v-55.81a.868.868,0,0,1,.868-.868h8.53a.868.868,0,0,1,.868.868V280.5a.868.868,0,0,0,.868.868h1.2a.868.868,0,0,0,.868-.868V252.172a.868.868,0,0,1,.868-.868h8.528a.868.868,0,0,1,.868.868" transform="translate(-184.277 -181.419)" fill="#e34342"/>
      <path id="Path_300" data-name="Path 300" d="M377.837,299.763V252.238a.868.868,0,0,0-.868-.868H351.928a.868.868,0,0,0-.868.868v55.81a.868.868,0,0,0,.868.868h25.041a.868.868,0,0,0,.868-.868v-3.863a.868.868,0,0,0-.868-.868H362.481a.868.868,0,0,1-.868-.868v-.95a.868.868,0,0,1,.868-.868h14.488a.868.868,0,0,0,.868-.868m-16.858-5.476V265.961a.868.868,0,0,1,.868-.868h1.2a.868.868,0,0,1,.868.868v28.326a.868.868,0,0,1-.868.868h-1.2a.868.868,0,0,1-.868-.868" transform="translate(-253.434 -181.466)" fill="#e34342"/>
      <path id="Path_301" data-name="Path 301" d="M485.306,300.07V252.545a.868.868,0,0,0-.868-.868H459.4a.868.868,0,0,0-.868.868v55.81a.868.868,0,0,0,.868.868h25.041a.868.868,0,0,0,.868-.868v-3.863a.868.868,0,0,0-.868-.868H469.952a.868.868,0,0,1-.868-.868v-.95a.868.868,0,0,1,.868-.868h14.487a.868.868,0,0,0,.868-.868m-16.858-5.476V266.268a.868.868,0,0,1,.868-.868h1.2a.868.868,0,0,1,.868.868v28.326a.868.868,0,0,1-.868.868h-1.2a.868.868,0,0,1-.868-.868" transform="translate(-331.017 -181.688)" fill="#e34342"/>
      <path id="Path_302" data-name="Path 302" d="M557.327,26.886V82.7a.987.987,0,0,0,1.072.868h30.929A.987.987,0,0,0,590.4,82.7V78.835a.987.987,0,0,0-1.072-.868h-17.9a.987.987,0,0,1-1.072-.868v-.951a.987.987,0,0,1,1.072-.868h17.9a.987.987,0,0,0,1.072-.868V26.886a.987.987,0,0,0-1.072-.868H558.4a.987.987,0,0,0-1.072.868m15.108,43.438h-1.487a.986.986,0,0,1-1.072-.868V41.131a.986.986,0,0,1,1.072-.868h1.487a.987.987,0,0,1,1.072.868V69.456a.987.987,0,0,1-1.072.868" transform="translate(-402.34 -18.783)" fill="#e34342"/>
      <path id="Path_303" data-name="Path 303" d="M192.643,27.825H160.4a.918.918,0,0,0-.961.868V84.5a.918.918,0,0,0,.961.868h17.252a.918.918,0,0,0,.961-.868V78.782a.917.917,0,0,1,.951-.868q6.563-.056,13.126-.115a.917.917,0,0,0,.951-.869q-.019-24.118-.036-48.238a.918.918,0,0,0-.961-.868M178.271,70.977h-1.332a.918.918,0,0,1-.961-.868V41.728a.918.918,0,0,1,.961-.868h1.332a.918.918,0,0,1,.961.868V70.109a.918.918,0,0,1-.961.868" transform="translate(-115.101 -20.087)" fill="#e34342"/>
      <path id="Path_304" data-name="Path 304" d="M292.242,28.693V84.5c0,.479.53.868,1.183.868h29.622c.654,0,1.183-.389,1.183-.868V28.693c0-.479-.53-.868-1.183-.868H293.425c-.654,0-1.183.389-1.183.868m16.816,43.438h-1.641c-.654,0-1.183-.389-1.183-.868V42.938c0-.479.53-.868,1.183-.868h1.641c.654,0,1.183.389,1.183.868V71.263c0,.479-.53.868-1.183.868" transform="translate(-210.973 -20.087)" fill="#e34342"/>
      <path id="Path_305" data-name="Path 305" d="M419.149,26.884v55.81c0,.479.535.868,1.2.868h13.8c.66,0,1.195-.389,1.195-.868V81.623c0-1.01,1.972-1.206,2.346-.233l.59,1.538a1.2,1.2,0,0,0,1.151.635h13.9c.82,0,1.4-.587,1.13-1.15L441.524,55.038a.644.644,0,0,1-.025-.5L451.42,27.1c.2-.55-.372-1.089-1.156-1.089H436.677a1.284,1.284,0,0,0-1.084.5l-.717,1.122c-.542.848-2.291.56-2.279-.374l.005-.373c.007-.483-.53-.877-1.195-.877H420.344c-.66,0-1.2.389-1.2.868" transform="translate(-302.588 -18.781)" fill="#e34342"/>
      <path id="Path_306" data-name="Path 306" d="M624.187,10.584l4.17,3.669a1.256,1.256,0,0,0,1.517.05l12.206-9.128a.757.757,0,0,0,.062-1.226L637.971.281a1.257,1.257,0,0,0-1.517-.05L624.248,9.359a.758.758,0,0,0-.062,1.226" transform="translate(-450.403 0)" fill="#e34342"/>
      <path id="Path_307" data-name="Path 307" d="M750.259,176.181c-.961-.678-2.7-1.794-7.923-3.927-2.511-1.026-4.44-1.721-4.66-1.8-8.707-3.126-13.062-4.687-14.211-5.072-12.471-4.169-23.206-6.926-26.735-7.8a1,1,0,0,0-1.239.961c-.262,26.137-.494,43.669-.683,46.3-.045.627-.306,3.452.43,3.666a.405.405,0,0,0,.1.012c.257.012.711-.122,4.357-.925,9.271-2.041,10.571-2.116,16.194-3.519,2.546-.635,3.124-.819,12-3.108,4.88-1.257,5.933-1.519,8.5-2.208,5.687-1.526,10.288-2.866,13.864-5.481,1.466-1.073,2.177-1.931,1.862-2.7a2.939,2.939,0,0,0-2.446-1.308c-1.23-.083-1.9.5-3.379,1.145a22.525,22.525,0,0,1-6.872,1.472,22.132,22.132,0,0,1-5.593.082c-1.756-.224-4.049-.513-4.426-1.391-.711-1.65,5.8-4.332,6.406-4.582a50.732,50.732,0,0,1,9.787-2.7,43.38,43.38,0,0,0,4.8-.992c.54-.185,2.731-.935,3.123-2.2.411-1.324-1.349-2.577-3.261-3.925m-21.877,5.99c-2.723,0-4.931-1.55-4.931-3.463s2.208-3.462,4.931-3.462,4.931,1.55,4.931,3.462-2.208,3.463-4.931,3.463" transform="translate(-501.53 -113.739)" fill="#e34342"/>
    </g>
  </g>
</svg>
