<svg xmlns="http://www.w3.org/2000/svg" xmlns:xlink="http://www.w3.org/1999/xlink" width="354.78" height="190.543" viewBox="0 0 354.78 190.543"><defs><clipPath id="a"><rect width="354.78" height="190.543" fill="none"/></clipPath></defs><g clip-path="url(#a)"><path d="M47.219,175.908c-.288-.113-5.523-2.557-15.424-8.439-8.831-5.247-13.7-8.67-22.117-11.35-1.568-.5-8.721-2.712-9.313-1.455-.353.751,1.947,2.083,3.783,4.074,4.064,4.406,3.646,9.645,4.365,22.7.854,15.489,1.741,13.542,1.164,17.17C8.5,206,4.659,215.043,2.986,218.978.724,224.3-.715,226.8.366,228c1.782,1.97,8.678-1.54,12.514-3.492,7.31-3.721,8.069-5.637,17.461-11.64,7.031-4.5,11.631-6.633,16.006-8.148,4.5-1.559,6.93-.022,8.73-2.037,1.348-1.51.993-3,.8-11.527-.175-7.642.054-8.932-1.164-10.768-1.672-2.52-4.147-3.171-7.49-4.478" transform="translate(0 -93.892)" fill="#e34342"/></g><g clip-path="url(#a)"><path d="M565.983,331.171v-78.5a1.222,1.222,0,0,1,1.222-1.222h16.927a1.222,1.222,0,0,1,1.2.989q1.259,6.48,2.519,12.959a1.222,1.222,0,0,0,2.421-.233V252.672a1.222,1.222,0,0,1,1.222-1.222H608a1.222,1.222,0,0,1,1.222,1.222v78.5A1.222,1.222,0,0,1,608,332.393H590.4a1.222,1.222,0,0,1-1.174-.884l-3.508-12.173a1.222,1.222,0,0,0-2.4.339v11.5a1.222,1.222,0,0,1-1.222,1.222h-14.9a1.222,1.222,0,0,1-1.222-1.222" transform="translate(-344.439 -153.024)" fill="#e34342"/><path d="M191.253,332.3h0a1.222,1.222,0,0,0,1.222-1.222V252.525a1.222,1.222,0,0,0-1.222-1.222H160.661a1.222,1.222,0,0,0-1.222,1.222v78.556a1.222,1.222,0,0,0,1.222,1.222H174.43a1.221,1.221,0,0,1,.864.358l10.459,10.459a1.222,1.222,0,0,0,1.728,0l4.956-4.954a1.222,1.222,0,0,0,0-1.729l-2.048-2.048a1.222,1.222,0,0,1,.864-2.086m-14.034-16.847h-1.695a1.222,1.222,0,0,1-1.222-1.222V274.366a1.222,1.222,0,0,1,1.222-1.222h1.695a1.222,1.222,0,0,1,1.222,1.222v39.868a1.222,1.222,0,0,1-1.222,1.222" transform="translate(-97.029 -152.935)" fill="#e34342"/><path d="M288.3,252.526v78.556a1.222,1.222,0,0,1-1.222,1.222H256.485a1.222,1.222,0,0,1-1.222-1.222V252.526a1.222,1.222,0,0,1,1.222-1.222h12.006a1.222,1.222,0,0,1,1.222,1.222V292.4a1.222,1.222,0,0,0,1.222,1.222h1.695a1.222,1.222,0,0,0,1.222-1.222V252.526a1.222,1.222,0,0,1,1.222-1.222h12a1.222,1.222,0,0,1,1.222,1.222" transform="translate(-155.345 -152.935)" fill="#e34342"/><path d="M388.751,319.487V252.592a1.222,1.222,0,0,0-1.222-1.222H352.282a1.222,1.222,0,0,0-1.222,1.222v78.556a1.222,1.222,0,0,0,1.222,1.222h35.247a1.222,1.222,0,0,0,1.222-1.222v-5.437a1.222,1.222,0,0,0-1.222-1.222H367.135a1.222,1.222,0,0,1-1.222-1.222v-1.337a1.222,1.222,0,0,1,1.222-1.222h20.394a1.222,1.222,0,0,0,1.222-1.222m-23.729-7.708V271.908a1.222,1.222,0,0,1,1.222-1.222h1.694a1.222,1.222,0,0,1,1.222,1.222v39.871A1.222,1.222,0,0,1,367.939,313h-1.694a1.222,1.222,0,0,1-1.222-1.222" transform="translate(-213.644 -152.976)" fill="#e34342"/><path d="M496.22,319.794V252.9A1.222,1.222,0,0,0,495,251.677H459.751a1.222,1.222,0,0,0-1.222,1.222v78.556a1.222,1.222,0,0,0,1.222,1.222H495a1.222,1.222,0,0,0,1.222-1.222v-5.437A1.222,1.222,0,0,0,495,324.8H474.607a1.222,1.222,0,0,1-1.222-1.222v-1.337a1.222,1.222,0,0,1,1.222-1.222H495a1.222,1.222,0,0,0,1.222-1.222m-23.729-7.708V272.215a1.222,1.222,0,0,1,1.222-1.222h1.695a1.222,1.222,0,0,1,1.222,1.222v39.871a1.222,1.222,0,0,1-1.222,1.222h-1.695a1.222,1.222,0,0,1-1.222-1.222" transform="translate(-279.046 -153.162)" fill="#e34342"/><path d="M557.327,27.24V105.8a1.389,1.389,0,0,0,1.509,1.222h43.535a1.389,1.389,0,0,0,1.509-1.222v-5.434a1.389,1.389,0,0,0-1.509-1.222H577.182a1.389,1.389,0,0,1-1.509-1.222V96.578a1.389,1.389,0,0,1,1.509-1.222h25.189a1.389,1.389,0,0,0,1.509-1.222V27.24a1.389,1.389,0,0,0-1.509-1.222H558.836a1.389,1.389,0,0,0-1.509,1.222m21.266,61.141H576.5a1.389,1.389,0,0,1-1.509-1.222V47.291a1.389,1.389,0,0,1,1.509-1.222h2.093a1.389,1.389,0,0,1,1.509,1.222V87.159a1.389,1.389,0,0,1-1.509,1.222" transform="translate(-339.171 -15.834)" fill="#e34342"/><path d="M206.177,27.825H160.791a1.292,1.292,0,0,0-1.352,1.222V107.6a1.292,1.292,0,0,0,1.352,1.222h24.284a1.292,1.292,0,0,0,1.352-1.222V99.551a1.29,1.29,0,0,1,1.339-1.222q9.238-.079,18.475-.162a1.291,1.291,0,0,0,1.339-1.223q-.027-33.948-.051-67.9a1.292,1.292,0,0,0-1.352-1.221m-20.23,60.74h-1.875a1.292,1.292,0,0,1-1.352-1.222V47.4a1.292,1.292,0,0,1,1.352-1.222h1.875A1.292,1.292,0,0,1,187.3,47.4V87.343a1.292,1.292,0,0,1-1.352,1.222" transform="translate(-97.029 -16.933)" fill="#e34342"/><path d="M292.242,29.047V107.6c0,.675.746,1.222,1.666,1.222h41.7c.92,0,1.666-.547,1.666-1.222V29.047c0-.675-.746-1.222-1.666-1.222h-41.7c-.92,0-1.666.547-1.666,1.222m23.67,61.141H313.6c-.92,0-1.666-.547-1.666-1.222V49.1c0-.675.746-1.222,1.666-1.222h2.309c.92,0,1.666.547,1.666,1.222V88.966c0,.675-.746,1.222-1.666,1.222" transform="translate(-177.849 -16.933)" fill="#e34342"/><path d="M419.149,27.238v78.556c0,.675.753,1.222,1.682,1.222h19.422c.929,0,1.682-.547,1.682-1.222v-1.508c0-1.422,2.776-1.7,3.3-.328l.831,2.164a1.691,1.691,0,0,0,1.62.894h19.56c1.154,0,1.965-.826,1.591-1.619L450.644,66.866a.906.906,0,0,1-.036-.707l13.964-38.61c.28-.775-.524-1.532-1.627-1.532H443.821a1.807,1.807,0,0,0-1.525.707l-1.01,1.579c-.763,1.193-3.225.788-3.207-.527l.007-.526c.009-.68-.746-1.234-1.682-1.234H420.831c-.929,0-1.682.547-1.682,1.222" transform="translate(-255.08 -15.832)" fill="#e34342"/><path d="M624.3,14.9l5.869,5.164a1.769,1.769,0,0,0,2.135.07L649.488,7.284a1.066,1.066,0,0,0,.086-1.725L643.705.395a1.769,1.769,0,0,0-2.135-.07L624.389,13.173A1.066,1.066,0,0,0,624.3,14.9" transform="translate(-379.687 0)" fill="#e34342"/><path d="M772.893,183.774c-1.352-.954-3.8-2.525-11.152-5.528-3.534-1.444-6.25-2.423-6.559-2.533-12.256-4.4-18.386-6.6-20-7.14-17.553-5.869-32.664-9.749-37.632-10.979a1.406,1.406,0,0,0-1.743,1.352c-.369,36.789-.695,61.467-.961,65.166-.063.882-.431,4.859.606,5.16a.573.573,0,0,0,.144.016c.362.016,1-.171,6.133-1.3,13.049-2.873,14.88-2.978,22.794-4.953,3.584-.893,4.4-1.153,16.89-4.375,6.869-1.77,8.351-2.138,11.971-3.108,8.005-2.149,14.481-4.035,19.514-7.715,2.063-1.51,3.064-2.718,2.621-3.8-.4-.99-1.963-1.742-3.443-1.842-1.731-.116-2.671.708-4.756,1.612-3.113,1.347-6.023,1.668-9.673,2.071a31.154,31.154,0,0,1-7.873.116c-2.472-.315-5.7-.722-6.23-1.958-1-2.323,8.168-6.1,9.018-6.449a71.41,71.41,0,0,1,13.776-3.8,61.068,61.068,0,0,0,6.753-1.4c.761-.26,3.844-1.316,4.4-3.094.578-1.864-1.9-3.628-4.59-5.525M742.1,192.2c-3.833,0-6.941-2.182-6.941-4.875s3.108-4.873,6.941-4.873,6.941,2.182,6.941,4.873-3.108,4.875-6.941,4.875" transform="translate(-422.788 -95.882)" fill="#e34342"/></g></svg>