<svg xmlns="http://www.w3.org/2000/svg" xmlns:xlink="http://www.w3.org/1999/xlink" width="1334.623" height="261.608" viewBox="0 0 1334.623 261.608"><defs><clipPath id="a"><rect width="1334.623" height="261.608" fill="none"/></clipPath></defs><g clip-path="url(#a)"><path d="M122.544,90.389c-.749-.293-14.334-6.634-40.027-21.9-22.917-13.616-35.565-22.5-57.4-29.454C21.049,37.738,2.488,32,.952,35.258.034,37.208,6,40.663,10.77,45.831,21.317,57.266,20.232,70.863,22.1,104.739c2.215,40.2,4.519,35.145,3.02,44.559-3.055,19.2-13.028,42.652-17.37,52.865-5.869,13.8-9.6,20.31-6.8,23.413,4.624,5.112,22.521-4,32.475-9.064C52.4,206.856,54.369,201.883,78.741,186.3c18.248-11.665,30.183-17.213,41.537-21.146,11.681-4.047,17.986-.056,22.657-5.287,3.5-3.918,2.576-7.795,2.069-29.914-.454-19.834.14-23.179-3.021-27.944-4.339-6.541-10.763-8.228-19.439-11.623" fill="#e34342"/></g><g clip-path="url(#a)"><path d="M1025.956,229.94V29.4a3.122,3.122,0,0,1,3.122-3.122h43.244a3.121,3.121,0,0,1,3.064,2.526q3.218,16.554,6.437,33.106a3.122,3.122,0,0,0,6.186-.6V29.4a3.121,3.121,0,0,1,3.121-3.122h42.175a3.122,3.122,0,0,1,3.122,3.122V229.94a3.122,3.122,0,0,1-3.122,3.122H1088.34a3.122,3.122,0,0,1-3-2.258l-8.96-31.1a3.123,3.123,0,0,0-6.123.865v29.37a3.122,3.122,0,0,1-3.122,3.122h-38.057a3.122,3.122,0,0,1-3.122-3.122" fill="#e34342"/><path d="M700.688,233.06h0a3.121,3.121,0,0,0,3.122-3.121V29.25a3.122,3.122,0,0,0-3.122-3.122H622.534a3.122,3.122,0,0,0-3.122,3.122V229.939a3.121,3.121,0,0,0,3.122,3.121H657.71a3.118,3.118,0,0,1,2.207.915l26.719,26.719a3.122,3.122,0,0,0,4.415,0l12.661-12.656a3.122,3.122,0,0,0,0-4.416l-5.233-5.232a3.123,3.123,0,0,1,2.208-5.33m-35.854-43.039h-4.329a3.122,3.122,0,0,1-3.122-3.122V85.047a3.122,3.122,0,0,1,3.122-3.122h4.329a3.122,3.122,0,0,1,3.122,3.122V186.9a3.122,3.122,0,0,1-3.122,3.122" fill="#e34342"/><path d="M799.634,29.251V229.94a3.121,3.121,0,0,1-3.122,3.121H718.358a3.121,3.121,0,0,1-3.122-3.121V29.251a3.121,3.121,0,0,1,3.122-3.121H749.03a3.121,3.121,0,0,1,3.122,3.121V131.109a3.121,3.121,0,0,0,3.122,3.122H759.6a3.121,3.121,0,0,0,3.122-3.122V29.251a3.121,3.121,0,0,1,3.121-3.121h30.666a3.121,3.121,0,0,1,3.122,3.121" fill="#e34342"/><path d="M907.323,200.214V29.317a3.122,3.122,0,0,0-3.122-3.122H814.155a3.122,3.122,0,0,0-3.122,3.122V230.006a3.122,3.122,0,0,0,3.122,3.122H904.2a3.122,3.122,0,0,0,3.122-3.122v-13.89a3.121,3.121,0,0,0-3.122-3.121H852.1a3.122,3.122,0,0,1-3.122-3.122v-3.415a3.122,3.122,0,0,1,3.122-3.122h52.1a3.122,3.122,0,0,0,3.122-3.122M846.7,180.523V78.665a3.122,3.122,0,0,1,3.122-3.122h4.329a3.122,3.122,0,0,1,3.122,3.122V180.523a3.122,3.122,0,0,1-3.122,3.122h-4.329a3.122,3.122,0,0,1-3.122-3.122" fill="#e34342"/><path d="M1014.792,200.521V29.624a3.122,3.122,0,0,0-3.122-3.122H921.624a3.122,3.122,0,0,0-3.122,3.122V230.313a3.122,3.122,0,0,0,3.122,3.122h90.046a3.122,3.122,0,0,0,3.122-3.122v-13.89a3.121,3.121,0,0,0-3.122-3.121H959.576a3.121,3.121,0,0,1-3.121-3.122v-3.415a3.121,3.121,0,0,1,3.121-3.122h52.094a3.122,3.122,0,0,0,3.122-3.122m-60.62-19.691V78.972a3.122,3.122,0,0,1,3.122-3.122h4.329a3.122,3.122,0,0,1,3.122,3.122V180.83a3.122,3.122,0,0,1-3.122,3.122h-4.329a3.122,3.122,0,0,1-3.122-3.122" fill="#e34342"/><path d="M483.888,29.14V229.828a3.122,3.122,0,0,0,3.122,3.122h90.046a3.122,3.122,0,0,0,3.122-3.122V215.945a3.122,3.122,0,0,0-3.122-3.122h-52.1a3.122,3.122,0,0,1-3.122-3.122V206.28a3.121,3.121,0,0,1,3.122-3.121h52.1a3.122,3.122,0,0,0,3.122-3.122V29.14a3.122,3.122,0,0,0-3.122-3.122H487.01a3.122,3.122,0,0,0-3.122,3.122m43.986,156.2h-4.329a3.122,3.122,0,0,1-3.122-3.122V80.365a3.122,3.122,0,0,1,3.122-3.122h4.329A3.122,3.122,0,0,1,531,80.365V182.217a3.122,3.122,0,0,1-3.122,3.122" fill="#e34342"/><path d="M273.654,26.018H168.873a3.122,3.122,0,0,0-3.122,3.122V229.827a3.122,3.122,0,0,0,3.122,3.122h56.063a3.122,3.122,0,0,0,3.122-3.122v-20.57a3.122,3.122,0,0,1,3.092-3.122q21.326-.2,42.653-.413a3.12,3.12,0,0,0,3.091-3.124q-.062-86.727-.118-173.46a3.122,3.122,0,0,0-3.122-3.12m-46.7,155.172H222.62a3.121,3.121,0,0,1-3.122-3.121V76.014a3.121,3.121,0,0,1,3.122-3.121h4.329a3.121,3.121,0,0,1,3.122,3.121V178.069a3.121,3.121,0,0,1-3.122,3.121" fill="#e34342"/><path d="M287,29.14V229.828a3.121,3.121,0,0,0,3.121,3.122h78.154a3.122,3.122,0,0,0,3.122-3.122V29.14a3.122,3.122,0,0,0-3.122-3.122H290.124A3.121,3.121,0,0,0,287,29.14m44.366,156.2H327.04a3.122,3.122,0,0,1-3.122-3.122V80.365a3.122,3.122,0,0,1,3.122-3.122h4.329a3.122,3.122,0,0,1,3.122,3.122V182.217a3.122,3.122,0,0,1-3.122,3.122" fill="#e34342"/><path d="M381.631,29.138V229.827a3.122,3.122,0,0,0,3.122,3.122H420.8a3.122,3.122,0,0,0,3.122-3.122v-3.852a3.122,3.122,0,0,1,6.129-.838l1.542,5.529a3.122,3.122,0,0,0,3.007,2.283h36.306a3.122,3.122,0,0,0,2.953-4.135L440.09,130.376a3.118,3.118,0,0,1-.066-1.807l25.919-98.638a3.122,3.122,0,0,0-3.019-3.915h-35.5a3.122,3.122,0,0,0-2.831,1.807l-1.875,4.035a3.122,3.122,0,0,1-5.953-1.346q.008-.672.014-1.343a3.123,3.123,0,0,0-3.122-3.153H384.753a3.122,3.122,0,0,0-3.122,3.122" fill="#e34342"/><path d="M538.615,38.059l12.139,13.192a3.121,3.121,0,0,0,4.415.18l35.538-32.823a3.122,3.122,0,0,0,.179-4.407L578.746,1.008A3.123,3.123,0,0,0,574.33.829L538.793,33.652a3.12,3.12,0,0,0-.178,4.407" fill="#e34342"/><path d="M1324.249,106.052c-3-2.117-8.437-5.6-24.747-12.267-7.842-3.2-13.868-5.375-14.555-5.621-27.2-9.762-40.8-14.641-44.39-15.843-38.952-13.022-72.482-21.633-83.508-24.362a3.119,3.119,0,0,0-3.868,3c-.819,81.638-1.541,136.4-2.133,144.608-.142,1.958-.958,10.781,1.343,11.45a1.261,1.261,0,0,0,.32.037c.8.037,2.221-.38,13.61-2.89,28.957-6.376,33.019-6.609,50.581-10.99,7.952-1.982,9.756-2.559,37.48-9.708,15.242-3.927,18.531-4.743,26.564-6.9,17.764-4.768,32.135-8.952,43.3-17.12,4.578-3.35,6.8-6.032,5.817-8.431-.9-2.2-4.357-3.866-7.64-4.087-3.841-.258-5.927,1.571-10.554,3.578-6.909,2.988-13.364,3.7-21.464,4.6a69.171,69.171,0,0,1-17.47.257c-5.486-.7-12.647-1.6-13.825-4.344-2.221-5.154,18.126-13.53,20.01-14.31,12.788-5.265,27.19-7.83,30.571-8.431,8.658-1.54,12.96-2.4,14.985-3.1,1.687-.577,8.529-2.921,9.756-6.866,1.283-4.136-4.215-8.051-10.186-12.26m-68.333,18.709c-8.505,0-15.4-4.842-15.4-10.818s6.9-10.812,15.4-10.812,15.4,4.841,15.4,10.812-6.9,10.818-15.4,10.818" fill="#e34342"/></g></svg>